<?xml version="1.0" encoding="UTF-8"?>
<svg version="1.1" xmlns="http://www.w3.org/2000/svg" viewBox="0 0 500 500">
<path d="M0 0 C0.66 0 1.32 0 2 0 C2.05945801 1.01477417 2.05945801 1.01477417 2.12011719 2.05004883 C4.77261369 45.67335795 12.39603811 89.53996319 32 129 C32.62044189 130.26529541 32.62044189 130.26529541 33.25341797 131.55615234 C41.55544736 148.36343946 50.93457622 162.56181092 64 176 C64.53206055 176.55397461 65.06412109 177.10794922 65.61230469 177.67871094 C89.19541301 201.84839742 120.44862669 213.90550123 153.71606445 216.31738281 C155.81666571 216.48104968 157.91013059 216.73212254 160 217 C160.33 217.66 160.66 218.32 161 219 C159.69289063 219.09796875 158.38578125 219.1959375 157.0390625 219.296875 C119.49168412 222.339727 90.25215691 235.12054433 63 261 C62.05060547 261.85271484 62.05060547 261.85271484 61.08203125 262.72265625 C50.33415105 272.70465425 42.65437018 286.08168735 36 299 C35.39889404 300.16329834 35.39889404 300.16329834 34.78564453 301.35009766 C13.70373037 342.66603955 3.84152119 388.83496871 2 435 C1.34 435.33 0.68 435.66 0 436 C-0.03440186 435.319375 -0.06880371 434.63875 -0.10424805 433.9375 C-3.39193649 372.6080933 -18.13294959 305.53626846 -62 260 C-62.63035156 259.30648438 -63.26070313 258.61296875 -63.91015625 257.8984375 C-86.89467557 233.34793994 -119.52395591 221.96842644 -152.32299805 219.68261719 C-153.58817261 219.58835449 -153.58817261 219.58835449 -154.87890625 219.4921875 C-156.00147827 219.42040283 -156.00147827 219.42040283 -157.14672852 219.34716797 C-159 219 -159 219 -161 217 C-160.10414185 216.94054199 -160.10414185 216.94054199 -159.19018555 216.87988281 C-126.90470362 214.64499526 -96.70030196 207.09623911 -72 185 C-71.13761719 184.24589844 -70.27523437 183.49179688 -69.38671875 182.71484375 C-66.89289414 180.50862258 -64.44075532 178.26466056 -62 176 C-61.33484375 175.40058594 -60.6696875 174.80117187 -59.984375 174.18359375 C-46.61613368 161.60331787 -38.18371257 145.18067148 -30 129 C-29.41025391 127.83476807 -29.41025391 127.83476807 -28.80859375 126.64599609 C-9.40674887 87.52908466 -2.40214534 43.15073274 0 0 Z " fill="currentColor" transform="translate(249,32)"/>
<path d="M0 0 C0.66 0 1.32 0 2 0 C2.06993164 0.72888428 2.13986328 1.45776855 2.21191406 2.20874023 C5.11190628 31.80777654 9.13758335 60.61735142 32 82 C41.56255344 89.43130986 51.05863549 92.2631924 63 93 C63 93.66 63 94.32 63 95 C60.36039377 96.31980312 57.92992612 96.44280413 55 96.8125 C41.97707985 98.79175438 32.16456718 104.40612525 23.74609375 114.61328125 C11.71741553 131.05516579 6.30839387 149.99527929 4 170 C3.84772949 171.27641357 3.84772949 171.27641357 3.69238281 172.57861328 C3.0838238 177.71488975 2.52256275 182.85429388 2 188 C1.34 188 0.68 188 0 188 C-0.03440186 187.44876465 -0.06880371 186.8975293 -0.10424805 186.32958984 C-1.96107078 158.39952143 -7.17453821 127.67735283 -28.4375 107.5 C-36.83538102 100.55306177 -46.3011078 97.15532826 -57.08203125 96.24609375 C-59 96 -59 96 -61 95 C-61 94.34 -61 93.68 -61 93 C-60.12859375 92.91363281 -59.2571875 92.82726562 -58.359375 92.73828125 C-42.16043955 90.82736787 -31.54258493 85.28746824 -21.25 72.5625 C-20.14991546 71.0537392 -19.06599907 69.53303331 -18 68 C-17.49984375 67.32324219 -16.9996875 66.64648438 -16.484375 65.94921875 C-4.08257892 47.57497877 -0.67596859 21.69859182 0 0 Z " fill="currentColor" transform="translate(413,23)"/>
<path d="M0 0 C0.66 0 1.32 0 2 0 C2.03440186 0.55123535 2.06880371 1.1024707 2.10424805 1.67041016 C3.96107078 29.60047857 9.17453821 60.32264717 30.4375 80.5 C38.83538102 87.44693823 48.3011078 90.84467174 59.08203125 91.75390625 C61 92 61 92 63 93 C63 93.66 63 94.32 63 95 C61.69289062 95.12955078 61.69289062 95.12955078 60.359375 95.26171875 C44.15875171 97.17283124 33.61016589 102.72516943 23.25 115.375 C7.7679698 136.44071322 3.92062164 161.60230591 2 187 C1.34 187 0.68 187 0 187 C-0.10022461 186.13947021 -0.20044922 185.27894043 -0.30371094 184.39233398 C-0.69019042 181.12018488 -1.08661235 177.84953037 -1.48925781 174.5793457 C-1.65976043 173.17876569 -1.826581 171.77773124 -1.98925781 170.3762207 C-4.76642133 146.52175753 -11.55175208 122.80686418 -29.578125 105.8671875 C-38.96702709 98.62864686 -49.40314505 95.88668106 -61 95 C-60.67 94.01 -60.34 93.02 -60 92 C-59.09378906 91.90203125 -58.18757813 91.8040625 -57.25390625 91.703125 C-49.85154514 90.79447538 -43.50725629 89.70620048 -37 86 C-36.25234375 85.57847656 -35.5046875 85.15695312 -34.734375 84.72265625 C-17.38305739 74.06989152 -9.14040872 53.66958498 -4.41943359 34.66259766 C-2.87465429 27.47077545 -2.14180908 20.18315997 -1.375 12.875 C-1.2409375 11.63234375 -1.106875 10.3896875 -0.96875 9.109375 C-0.64179082 6.07332544 -0.31896696 3.03689782 0 0 Z " fill="currentColor" transform="translate(85,289)"/>
<path d="M0 0 C0.66 0.33 1.32 0.66 2 1 C-0.64 2.65 -3.28 4.3 -6 6 C-6.66 5.34 -7.32 4.68 -8 4 C-6.71349294 3.30289269 -5.42059335 2.61757124 -4.125 1.9375 C-3.40570313 1.55464844 -2.68640625 1.17179688 -1.9453125 0.77734375 C-1.30335938 0.52082031 -0.66140625 0.26429688 0 0 Z M-10 5 C-9.34 5 -8.68 5 -8 5 C-8.33 5.66 -8.66 6.32 -9 7 C-9.33 6.34 -9.66 5.68 -10 5 Z " fill="currentColor" transform="translate(154,233)"/>
</svg>
