<svg xmlns="http://www.w3.org/2000/svg" viewBox="0 0 6 6" fill="currentColor">
  <path
    fillRule="evenodd"
    clipRule="evenodd"
    d="M5.33207 5.33197C5.10625 5.55779 4.74012 5.55779 4.5143 5.33197L0.668263 1.48593C0.442443 1.26011 0.442443 0.893983 0.668264 0.668162C0.894084 0.442341 1.26021 0.442342 1.48603 0.668163L5.33207 4.5142C5.55789 4.74002 5.55789 5.10615 5.33207 5.33197Z"
    fill="inherit"
  />
  <path
    fillRule="evenodd"
    clipRule="evenodd"
    d="M5.33207 0.668032C5.10625 0.442211 4.74012 0.442212 4.5143 0.668032L0.668264 4.51407C0.442443 4.73989 0.442443 5.10602 0.668264 5.33184C0.894085 5.55766 1.26021 5.55766 1.48603 5.33184L5.33207 1.4858C5.55789 1.25998 5.55789 0.893853 5.33207 0.668032Z"
    fill="inherit"
  />
</svg>
