<svg xmlns="http://www.w3.org/2000/svg" viewBox="0 0 16 16" fill="currentColor">
  <path
    d="M8 0C3.58172 0 0 3.58172 0 8C0 12.4183 3.58172 16 8 16C12.4183 16 16 12.4183 16 8C16 5.87827 15.1571 3.84344 13.6569 2.34315C12.1566 0.842855 10.1217 0 8 0ZM8 14.6C4.35492 14.6 1.4 11.6451 1.4 8C1.4 4.35492 4.35492 1.4 8 1.4C11.6451 1.4 14.6 4.35492 14.6 8C14.5945 11.6428 11.6428 14.5945 8 14.6ZM9 8L10.82 6.17L10.83 6.18C11.1061 5.90386 11.1061 5.45614 10.83 5.18C10.5539 4.90386 10.1061 4.90386 9.83 5.18L8 7L6.18 5.17C5.90386 4.89386 5.45614 4.89386 5.18 5.17C4.90386 5.44614 4.90386 5.89386 5.18 6.17L7 8L5.17 9.82C4.89386 10.0961 4.89386 10.5439 5.17 10.82C5.44614 11.0961 5.89386 11.0961 6.17 10.82L8 9L9.83 10.83C10.1061 11.1061 10.5539 11.1061 10.83 10.83C11.1061 10.5539 11.1061 10.1061 10.83 9.83L9 8Z"
  />
</svg>
